<svg xmlns="http://www.w3.org/2000/svg" viewBox="0 0 182.14 69.47"><defs><style>.cls-1{fill:#002856;}.cls-2{fill:#c0d32f;}</style></defs><title>enroll-logo-medidata-attr-blue</title><g id="Layer_2" data-name="Layer 2"><g id="Layer_1-2" data-name="Layer 1"><path class="cls-1" d="M11.09,53.64c.38,4.82,5.12,7.11,10.55,7.11A30.8,30.8,0,0,0,32,59.15L33.49,67A35.35,35.35,0,0,1,20,69.39c-12.69,0-20-7.34-20-19,0-9.48,6-20,18.89-20,12.08,0,16.67,9.4,16.67,18.66a27.62,27.62,0,0,1-.38,4.59Zm13.69-8c0-2.83-1.22-7.57-6.5-7.57-5,0-7,4.51-7.26,7.57Z"/><path class="cls-1" d="M38.69,43.17c0-4.66-.15-8.56-.31-11.93H48.48l.54,5.2h.23a13.43,13.43,0,0,1,11.55-6c7.65,0,13.38,5.12,13.38,16.13v22.1H62.54V47.91c0-4.82-1.68-8.1-5.89-8.1a6.38,6.38,0,0,0-6,4.36,8.37,8.37,0,0,0-.38,2.91V68.63H38.69Z"/><path class="cls-1" d="M99.74,41.56A4,4,0,0,0,98,41.26c-4.28,0-7.19,2.22-8,5.89a13.13,13.13,0,0,0-.23,2.6V68.63H78.22V43.55c0-5.5-.08-9.1-.31-12.31h9.94l.46,7h.31a10.76,10.76,0,0,1,10.09-7.68,12.91,12.91,0,0,1,6.39,1.79Z"/><path class="cls-1" d="M120.86,69.47c-10.93,0-19.34-7.19-19.34-19.27s8-19.8,20-19.8c11.39,0,19,7.88,19,19.19,0,13.61-9.71,19.88-19.65,19.88Zm.31-8.33c4.59,0,7.42-4.51,7.42-11.24,0-5.5-2.14-11.16-7.42-11.16-5.5,0-7.65,5.66-7.65,11.24,0,6.35,2.68,11.16,7.57,11.16Z"/><path class="cls-1" d="M143.57,14.27h11.62V68.63H143.57Z"/><path class="cls-1" d="M159.62,14.27h11.62V68.63H159.62Z"/><path class="cls-1" d="M180.83,67.67a.75.75,0,0,1,0-.08v-.24a.72.72,0,0,0-.23-.59.9.9,0,0,0-.37-.15.86.86,0,0,0,.45-.18.57.57,0,0,0,.18-.48.66.66,0,0,0-.35-.63,1.32,1.32,0,0,0-.52-.14h-1.28v2.64h.69v-.93h.3a.78.78,0,0,1,.23,0,.33.33,0,0,1,.19.19,1.14,1.14,0,0,1,0,.32,2.25,2.25,0,0,0,0,.36h.66l0-.07A.48.48,0,0,1,180.83,67.67Zm-.78-1.35a.64.64,0,0,1-.38.09h-.27v-.76h.17a1.07,1.07,0,0,1,.4.06.3.3,0,0,1,.21.3A.36.36,0,0,1,180.05,66.32Z"/><path class="cls-1" d="M181.44,64.82a2.29,2.29,0,0,0-1.68-.7,2.33,2.33,0,0,0-1.64.65,2.27,2.27,0,0,0-.74,1.73,2.38,2.38,0,1,0,4.06-1.68Zm-.3,3.08a1.94,1.94,0,0,1-2.77,0,2,2,0,0,1,0-2.78,1.93,1.93,0,0,1,2.78,0,1.9,1.9,0,0,1,.57,1.38A1.92,1.92,0,0,1,181.14,67.9Z"/><path class="cls-2" d="M16.3,7.32a1.87,1.87,0,1,1-1.86-1.86A1.86,1.86,0,0,1,16.3,7.32"/><path class="cls-1" d="M3.08,5.46A1.86,1.86,0,1,0,4.94,7.32,1.87,1.87,0,0,0,3.08,5.46Zm5.68,0a1.86,1.86,0,1,0,1.86,1.86A1.87,1.87,0,0,0,8.76,5.46Zm5.68,9.37A1.86,1.86,0,1,0,12.56,13,1.86,1.86,0,0,0,14.43,14.82ZM3.08,11.11A1.86,1.86,0,1,0,4.94,13,1.86,1.86,0,0,0,3.08,11.11Zm5.68,0A1.86,1.86,0,1,0,10.62,13,1.86,1.86,0,0,0,8.76,11.11Zm5.68,5.65a1.86,1.86,0,1,0,1.86,1.86A1.86,1.86,0,0,0,14.43,16.75Zm-11.36,0a1.86,1.86,0,1,0,1.87,1.86A1.86,1.86,0,0,0,3.08,16.75Zm5.68,0a1.86,1.86,0,1,0,1.86,1.86A1.86,1.86,0,0,0,8.76,16.75Z"/><path class="cls-1" d="M69.18,7.65,68.57,7A4.08,4.08,0,0,0,65.3,5.72a5.21,5.21,0,0,0-3.89,1.46c-1,1-1.61,2.38-1.61,5.94s.61,5.08,1.67,6.11a5.29,5.29,0,0,0,3.8,1.38,4.31,4.31,0,0,0,3.44-1.46l.67-.66v1.85H72V0H69.18Zm0,7.79c0,1.49-1,2.79-3.22,2.79a3.12,3.12,0,0,1-2.28-.77c-.72-.72-1-1.79-1-4.36,0-2.4.22-3.45.91-4.17A3.16,3.16,0,0,1,66,8.12c2.25,0,3.22,1.3,3.22,2.82Z"/><path class="cls-1" d="M37.43,5.72a4.89,4.89,0,0,0-3.86,1.77l-.5.47A4.27,4.27,0,0,0,29,5.72,4.26,4.26,0,0,0,25.74,7l-.94.94V6H22.13V20.33H25V10.74c0-1.52,1.28-2.62,3.08-2.62a2.37,2.37,0,0,1,2.55,2.62v9.58h2.89V10.74c0-1.52,1.28-2.62,3.08-2.62a2.37,2.37,0,0,1,2.55,2.62v9.58H42V11.19c0-2.37-.55-3.34-1.28-4.11A4.24,4.24,0,0,0,37.43,5.72Z"/><rect class="cls-1" x="76.29" y="6.02" width="2.86" height="14.31"/><path class="cls-1" d="M91.8,7.65,91.19,7a4.08,4.08,0,0,0-3.28-1.33A5.21,5.21,0,0,0,84,7.18c-1,1-1.61,2.38-1.61,5.94s.61,5.08,1.67,6.11a5.29,5.29,0,0,0,3.8,1.38,4.31,4.31,0,0,0,3.44-1.46l.67-.66v1.85h2.67V0H91.8Zm0,7.79c0,1.49-1,2.79-3.22,2.79a3.12,3.12,0,0,1-2.28-.77c-.72-.72-1-1.79-1-4.36,0-2.4.22-3.45.92-4.17a3.16,3.16,0,0,1,2.33-.8c2.25,0,3.22,1.3,3.22,2.82Z"/><path class="cls-1" d="M116.29,6V1.58h-2.86V6h-2.05V8.2h2.05v8.31a3.85,3.85,0,0,0,4.05,4.09h.36a2.27,2.27,0,0,0,1.42-.41V18.12H118a1.67,1.67,0,0,1-1.72-1.88v-8h3V6h-3Z"/><ellipse class="cls-1" cx="77.72" cy="2.34" rx="1.56" ry="1.55"/><path class="cls-1" d="M57.18,17.55a.25.25,0,0,0,0-.15.25.25,0,0,0-.14-.23h0l-2-1,0,.06c-.19.22-.64.69-.64.69a4.33,4.33,0,0,1-2.94,1.33h-.16c-2.58,0-3.55-1.35-3.55-3.76v-.74H57.2V12.46a6.74,6.74,0,0,0-1.72-5.08,6,6,0,0,0-4.36-1.66,6,6,0,0,0-4.55,1.71c-1.11,1.13-1.67,2.68-1.67,5.63,0,3.51.53,5,1.67,6a6.64,6.64,0,0,0,4.75,1.52h0a6.54,6.54,0,0,0,4.31-1.52,13.7,13.7,0,0,0,1.48-1.5Zm-9.4-6.17V11c0-1.41.78-3,3.33-3a3,3,0,0,1,3.19,3v.8H47.78Z"/><path class="cls-1" d="M108.13,7.26a6,6,0,0,0-4.53-1.55,6.54,6.54,0,0,0-4.31,1.52,10.78,10.78,0,0,0-1.14,1.1l-.37.42a.25.25,0,0,0,0,.15.25.25,0,0,0,.14.22l.48.24h0l1.48.74.05-.06c.19-.22.64-.69.64-.69A4.33,4.33,0,0,1,103.46,8c2.22,0,3,1,3,2.32,0,.75-.47,1.13-2,1.35l-2.39.36c-2.55.39-4.58,1.74-4.58,4.31,0,2.82,2.11,4.23,4.58,4.23a5.15,5.15,0,0,0,4-1.44l.53-.5v1.65h2.72V11A5,5,0,0,0,108.13,7.26Zm-1.69,7.93A3.16,3.16,0,0,1,103,18.42c-1.86,0-2.75-.86-2.75-2.27a2.07,2.07,0,0,1,1.94-2.07l3-.57a6.23,6.23,0,0,0,1.17-.37Z"/><path class="cls-1" d="M132.08,7.26a6,6,0,0,0-4.52-1.55,6.54,6.54,0,0,0-4.32,1.52,10.68,10.68,0,0,0-1.14,1.1l-.37.42a.26.26,0,0,0,0,.15.25.25,0,0,0,.14.22l.48.24h0l1.48.74.05-.06c.19-.22.64-.69.64-.69A4.33,4.33,0,0,1,127.41,8c2.22,0,3,1,3,2.32,0,.75-.47,1.13-2,1.35l-2.39.36c-2.55.39-4.58,1.74-4.58,4.31,0,2.82,2.11,4.23,4.58,4.23a5.16,5.16,0,0,0,4-1.44l.53-.5v1.65h2.72V11A5,5,0,0,0,132.08,7.26Zm-1.69,7.93A3.16,3.16,0,0,1,127,18.42c-1.86,0-2.75-.86-2.75-2.27a2.07,2.07,0,0,1,1.94-2.07l3-.57a6.21,6.21,0,0,0,1.17-.37Z"/></g></g></svg>